<mxfile host="app.diagrams.net" modified="2020-11-10T16:10:36.323Z" agent="5.0 (Windows NT 10.0; Win64; x64) AppleWebKit/537.36 (KHTML, like Gecko) Chrome/86.0.4240.183 Safari/537.36" etag="gjip7s6DmTU7OQgsKEZE" version="13.8.9-1" type="github">
  <diagram id="rN_J-9ETg_qTPU_yMJQu" name="Page-1">
    <mxGraphModel dx="5513" dy="2096" grid="1" gridSize="10" guides="1" tooltips="1" connect="1" arrows="1" fold="1" page="1" pageScale="1" pageWidth="1920" pageHeight="1200" math="0" shadow="0">
      <root>
        <mxCell id="0" />
        <mxCell id="1" parent="0" />
        <mxCell id="IwZt7iaxUgFLgzJAYP8h-428" style="edgeStyle=orthogonalEdgeStyle;rounded=0;orthogonalLoop=1;jettySize=auto;html=1;exitX=0.5;exitY=1;exitDx=0;exitDy=0;entryX=0.5;entryY=0;entryDx=0;entryDy=0;" parent="1" source="IwZt7iaxUgFLgzJAYP8h-424" target="IwZt7iaxUgFLgzJAYP8h-426" edge="1">
          <mxGeometry relative="1" as="geometry" />
        </mxCell>
        <mxCell id="IwZt7iaxUgFLgzJAYP8h-424" value="Fit4Prax" style="rounded=0;whiteSpace=wrap;html=1;" parent="1" vertex="1">
          <mxGeometry x="-490" y="-1140" width="170" height="30" as="geometry" />
        </mxCell>
        <mxCell id="IwZt7iaxUgFLgzJAYP8h-429" style="edgeStyle=orthogonalEdgeStyle;rounded=0;orthogonalLoop=1;jettySize=auto;html=1;entryX=0.5;entryY=0;entryDx=0;entryDy=0;" parent="1" source="IwZt7iaxUgFLgzJAYP8h-426" target="IwZt7iaxUgFLgzJAYP8h-430" edge="1">
          <mxGeometry relative="1" as="geometry">
            <mxPoint x="-570.0000000000002" y="-1050" as="targetPoint" />
          </mxGeometry>
        </mxCell>
        <mxCell id="IwZt7iaxUgFLgzJAYP8h-432" style="edgeStyle=orthogonalEdgeStyle;rounded=0;orthogonalLoop=1;jettySize=auto;html=1;exitX=0.5;exitY=1;exitDx=0;exitDy=0;entryX=0.5;entryY=0;entryDx=0;entryDy=0;" parent="1" source="IwZt7iaxUgFLgzJAYP8h-426" target="IwZt7iaxUgFLgzJAYP8h-431" edge="1">
          <mxGeometry relative="1" as="geometry" />
        </mxCell>
        <mxCell id="IwZt7iaxUgFLgzJAYP8h-434" style="edgeStyle=orthogonalEdgeStyle;rounded=0;orthogonalLoop=1;jettySize=auto;html=1;exitX=1;exitY=0.5;exitDx=0;exitDy=0;entryX=0;entryY=0.5;entryDx=0;entryDy=0;" parent="1" source="IwZt7iaxUgFLgzJAYP8h-426" target="IwZt7iaxUgFLgzJAYP8h-433" edge="1">
          <mxGeometry relative="1" as="geometry" />
        </mxCell>
        <mxCell id="IwZt7iaxUgFLgzJAYP8h-426" value="Log In Screen" style="rounded=0;whiteSpace=wrap;html=1;" parent="1" vertex="1">
          <mxGeometry x="-465" y="-1080" width="120" height="60" as="geometry" />
        </mxCell>
        <mxCell id="IwZt7iaxUgFLgzJAYP8h-439" style="edgeStyle=orthogonalEdgeStyle;rounded=0;orthogonalLoop=1;jettySize=auto;html=1;exitX=0.25;exitY=1;exitDx=0;exitDy=0;entryX=0;entryY=0.75;entryDx=0;entryDy=0;" parent="1" source="IwZt7iaxUgFLgzJAYP8h-430" target="IwZt7iaxUgFLgzJAYP8h-435" edge="1">
          <mxGeometry relative="1" as="geometry" />
        </mxCell>
        <mxCell id="IwZt7iaxUgFLgzJAYP8h-441" style="edgeStyle=orthogonalEdgeStyle;rounded=0;orthogonalLoop=1;jettySize=auto;html=1;exitX=0.25;exitY=1;exitDx=0;exitDy=0;entryX=0;entryY=0.5;entryDx=0;entryDy=0;" parent="1" source="IwZt7iaxUgFLgzJAYP8h-430" target="IwZt7iaxUgFLgzJAYP8h-436" edge="1">
          <mxGeometry relative="1" as="geometry">
            <mxPoint x="-1380.0344827586207" y="-900" as="targetPoint" />
          </mxGeometry>
        </mxCell>
        <mxCell id="IwZt7iaxUgFLgzJAYP8h-450" style="edgeStyle=orthogonalEdgeStyle;rounded=0;orthogonalLoop=1;jettySize=auto;html=1;exitX=0;exitY=0.5;exitDx=0;exitDy=0;entryX=0.5;entryY=0;entryDx=0;entryDy=0;" parent="1" source="IwZt7iaxUgFLgzJAYP8h-430" target="IwZt7iaxUgFLgzJAYP8h-443" edge="1">
          <mxGeometry relative="1" as="geometry" />
        </mxCell>
        <mxCell id="IwZt7iaxUgFLgzJAYP8h-451" style="edgeStyle=orthogonalEdgeStyle;rounded=0;orthogonalLoop=1;jettySize=auto;html=1;exitX=0;exitY=0.5;exitDx=0;exitDy=0;" parent="1" source="IwZt7iaxUgFLgzJAYP8h-430" target="IwZt7iaxUgFLgzJAYP8h-447" edge="1">
          <mxGeometry relative="1" as="geometry" />
        </mxCell>
        <mxCell id="IwZt7iaxUgFLgzJAYP8h-452" style="edgeStyle=orthogonalEdgeStyle;rounded=0;orthogonalLoop=1;jettySize=auto;html=1;exitX=0;exitY=0.5;exitDx=0;exitDy=0;" parent="1" source="IwZt7iaxUgFLgzJAYP8h-430" target="IwZt7iaxUgFLgzJAYP8h-449" edge="1">
          <mxGeometry relative="1" as="geometry" />
        </mxCell>
        <mxCell id="IwZt7iaxUgFLgzJAYP8h-454" style="edgeStyle=orthogonalEdgeStyle;rounded=0;orthogonalLoop=1;jettySize=auto;html=1;exitX=1;exitY=0.5;exitDx=0;exitDy=0;entryX=0;entryY=0.5;entryDx=0;entryDy=0;" parent="1" source="IwZt7iaxUgFLgzJAYP8h-430" target="IwZt7iaxUgFLgzJAYP8h-453" edge="1">
          <mxGeometry relative="1" as="geometry" />
        </mxCell>
        <mxCell id="IwZt7iaxUgFLgzJAYP8h-465" style="edgeStyle=orthogonalEdgeStyle;rounded=0;orthogonalLoop=1;jettySize=auto;html=1;exitX=0;exitY=0.5;exitDx=0;exitDy=0;entryX=0.5;entryY=0;entryDx=0;entryDy=0;" parent="1" source="IwZt7iaxUgFLgzJAYP8h-430" target="IwZt7iaxUgFLgzJAYP8h-464" edge="1">
          <mxGeometry relative="1" as="geometry" />
        </mxCell>
        <mxCell id="IwZt7iaxUgFLgzJAYP8h-430" value="Unternehmen" style="rounded=0;whiteSpace=wrap;html=1;" parent="1" vertex="1">
          <mxGeometry x="-1390" y="-1020" width="120" height="60" as="geometry" />
        </mxCell>
        <mxCell id="3NRR5k_P6wBEroULs3_i-11" style="edgeStyle=orthogonalEdgeStyle;rounded=0;orthogonalLoop=1;jettySize=auto;html=1;exitX=1;exitY=0.5;exitDx=0;exitDy=0;entryX=0;entryY=0.5;entryDx=0;entryDy=0;" parent="1" source="IwZt7iaxUgFLgzJAYP8h-431" target="3NRR5k_P6wBEroULs3_i-6" edge="1">
          <mxGeometry relative="1" as="geometry">
            <mxPoint x="-300" y="-900" as="targetPoint" />
          </mxGeometry>
        </mxCell>
        <mxCell id="JYuaUcvJa31lzN-BkhPr-9" style="edgeStyle=orthogonalEdgeStyle;rounded=0;orthogonalLoop=1;jettySize=auto;html=1;exitX=0.75;exitY=1;exitDx=0;exitDy=0;entryX=0;entryY=0.75;entryDx=0;entryDy=0;" edge="1" parent="1" source="IwZt7iaxUgFLgzJAYP8h-431" target="JYuaUcvJa31lzN-BkhPr-3">
          <mxGeometry relative="1" as="geometry" />
        </mxCell>
        <mxCell id="JYuaUcvJa31lzN-BkhPr-10" style="edgeStyle=orthogonalEdgeStyle;rounded=0;orthogonalLoop=1;jettySize=auto;html=1;exitX=0.75;exitY=1;exitDx=0;exitDy=0;entryX=0;entryY=0.5;entryDx=0;entryDy=0;" edge="1" parent="1" source="IwZt7iaxUgFLgzJAYP8h-431" target="JYuaUcvJa31lzN-BkhPr-4">
          <mxGeometry relative="1" as="geometry" />
        </mxCell>
        <mxCell id="JYuaUcvJa31lzN-BkhPr-11" style="edgeStyle=orthogonalEdgeStyle;rounded=0;orthogonalLoop=1;jettySize=auto;html=1;exitX=0.5;exitY=1;exitDx=0;exitDy=0;entryX=0.5;entryY=0;entryDx=0;entryDy=0;" edge="1" parent="1" source="IwZt7iaxUgFLgzJAYP8h-431" target="JYuaUcvJa31lzN-BkhPr-5">
          <mxGeometry relative="1" as="geometry" />
        </mxCell>
        <mxCell id="JYuaUcvJa31lzN-BkhPr-12" style="edgeStyle=orthogonalEdgeStyle;rounded=0;orthogonalLoop=1;jettySize=auto;html=1;exitX=0.5;exitY=1;exitDx=0;exitDy=0;entryX=0.5;entryY=0;entryDx=0;entryDy=0;" edge="1" parent="1" source="IwZt7iaxUgFLgzJAYP8h-431" target="JYuaUcvJa31lzN-BkhPr-6">
          <mxGeometry relative="1" as="geometry" />
        </mxCell>
        <mxCell id="JYuaUcvJa31lzN-BkhPr-13" style="edgeStyle=orthogonalEdgeStyle;rounded=0;orthogonalLoop=1;jettySize=auto;html=1;exitX=0.5;exitY=1;exitDx=0;exitDy=0;entryX=0.5;entryY=0;entryDx=0;entryDy=0;" edge="1" parent="1" source="IwZt7iaxUgFLgzJAYP8h-431" target="JYuaUcvJa31lzN-BkhPr-8">
          <mxGeometry relative="1" as="geometry" />
        </mxCell>
        <mxCell id="JYuaUcvJa31lzN-BkhPr-14" style="edgeStyle=orthogonalEdgeStyle;rounded=0;orthogonalLoop=1;jettySize=auto;html=1;exitX=0.5;exitY=1;exitDx=0;exitDy=0;" edge="1" parent="1" source="IwZt7iaxUgFLgzJAYP8h-431" target="JYuaUcvJa31lzN-BkhPr-7">
          <mxGeometry relative="1" as="geometry" />
        </mxCell>
        <mxCell id="IwZt7iaxUgFLgzJAYP8h-431" value="Studenten" style="rounded=0;whiteSpace=wrap;html=1;" parent="1" vertex="1">
          <mxGeometry x="-465" y="-930" width="120" height="60" as="geometry" />
        </mxCell>
        <mxCell id="IwZt7iaxUgFLgzJAYP8h-433" value="Professoren / UniversitÃ¤ten" style="rounded=0;whiteSpace=wrap;html=1;" parent="1" vertex="1">
          <mxGeometry x="-190" y="-1050" width="120" height="60" as="geometry" />
        </mxCell>
        <mxCell id="IwZt7iaxUgFLgzJAYP8h-435" value="User Profile" style="rounded=0;whiteSpace=wrap;html=1;" parent="1" vertex="1">
          <mxGeometry x="-1320" y="-950" width="120" height="20" as="geometry" />
        </mxCell>
        <mxCell id="IwZt7iaxUgFLgzJAYP8h-436" value="Unternehmen Profil" style="rounded=0;whiteSpace=wrap;html=1;" parent="1" vertex="1">
          <mxGeometry x="-1320" y="-920" width="120" height="20" as="geometry" />
        </mxCell>
        <mxCell id="IwZt7iaxUgFLgzJAYP8h-477" style="edgeStyle=orthogonalEdgeStyle;rounded=0;orthogonalLoop=1;jettySize=auto;html=1;exitX=0.5;exitY=1;exitDx=0;exitDy=0;" parent="1" source="IwZt7iaxUgFLgzJAYP8h-443" target="IwZt7iaxUgFLgzJAYP8h-470" edge="1">
          <mxGeometry relative="1" as="geometry" />
        </mxCell>
        <mxCell id="IwZt7iaxUgFLgzJAYP8h-443" value="Abschlussarbeiten" style="rounded=0;whiteSpace=wrap;html=1;" parent="1" vertex="1">
          <mxGeometry x="-1830" y="-830" width="120" height="60" as="geometry" />
        </mxCell>
        <mxCell id="IwZt7iaxUgFLgzJAYP8h-487" style="edgeStyle=orthogonalEdgeStyle;rounded=0;orthogonalLoop=1;jettySize=auto;html=1;exitX=0.5;exitY=1;exitDx=0;exitDy=0;entryX=0.5;entryY=0;entryDx=0;entryDy=0;" parent="1" source="IwZt7iaxUgFLgzJAYP8h-447" target="IwZt7iaxUgFLgzJAYP8h-483" edge="1">
          <mxGeometry relative="1" as="geometry" />
        </mxCell>
        <mxCell id="IwZt7iaxUgFLgzJAYP8h-447" value="Challenges" style="rounded=0;whiteSpace=wrap;html=1;" parent="1" vertex="1">
          <mxGeometry x="-1640" y="-830" width="120" height="60" as="geometry" />
        </mxCell>
        <mxCell id="IwZt7iaxUgFLgzJAYP8h-449" value="Praktika" style="rounded=0;whiteSpace=wrap;html=1;" parent="1" vertex="1">
          <mxGeometry x="-1260" y="-830" width="120" height="60" as="geometry" />
        </mxCell>
        <mxCell id="IwZt7iaxUgFLgzJAYP8h-457" style="edgeStyle=orthogonalEdgeStyle;rounded=0;orthogonalLoop=1;jettySize=auto;html=1;exitX=0.25;exitY=1;exitDx=0;exitDy=0;entryX=0;entryY=0.5;entryDx=0;entryDy=0;" parent="1" source="IwZt7iaxUgFLgzJAYP8h-453" target="IwZt7iaxUgFLgzJAYP8h-456" edge="1">
          <mxGeometry relative="1" as="geometry" />
        </mxCell>
        <mxCell id="IwZt7iaxUgFLgzJAYP8h-459" style="edgeStyle=orthogonalEdgeStyle;rounded=0;orthogonalLoop=1;jettySize=auto;html=1;exitX=0.25;exitY=1;exitDx=0;exitDy=0;entryX=0;entryY=0.5;entryDx=0;entryDy=0;" parent="1" source="IwZt7iaxUgFLgzJAYP8h-453" target="IwZt7iaxUgFLgzJAYP8h-458" edge="1">
          <mxGeometry relative="1" as="geometry" />
        </mxCell>
        <mxCell id="IwZt7iaxUgFLgzJAYP8h-462" style="edgeStyle=orthogonalEdgeStyle;rounded=0;orthogonalLoop=1;jettySize=auto;html=1;exitX=0.25;exitY=1;exitDx=0;exitDy=0;entryX=0;entryY=0.5;entryDx=0;entryDy=0;" parent="1" source="IwZt7iaxUgFLgzJAYP8h-453" target="IwZt7iaxUgFLgzJAYP8h-460" edge="1">
          <mxGeometry relative="1" as="geometry" />
        </mxCell>
        <mxCell id="IwZt7iaxUgFLgzJAYP8h-463" style="edgeStyle=orthogonalEdgeStyle;rounded=0;orthogonalLoop=1;jettySize=auto;html=1;exitX=0.25;exitY=1;exitDx=0;exitDy=0;entryX=0;entryY=0.5;entryDx=0;entryDy=0;" parent="1" source="IwZt7iaxUgFLgzJAYP8h-453" target="IwZt7iaxUgFLgzJAYP8h-461" edge="1">
          <mxGeometry relative="1" as="geometry" />
        </mxCell>
        <mxCell id="IwZt7iaxUgFLgzJAYP8h-453" value="Dashboard" style="rounded=0;whiteSpace=wrap;html=1;" parent="1" vertex="1">
          <mxGeometry x="-1050" y="-1020" width="120" height="60" as="geometry" />
        </mxCell>
        <mxCell id="IwZt7iaxUgFLgzJAYP8h-456" value="Ãbersicht der Bewerbungen" style="rounded=0;whiteSpace=wrap;html=1;" parent="1" vertex="1">
          <mxGeometry x="-990" y="-940" width="120" height="40" as="geometry" />
        </mxCell>
        <mxCell id="IwZt7iaxUgFLgzJAYP8h-458" value="Anzahl der offenen Abschlussarbeiten" style="rounded=0;whiteSpace=wrap;html=1;" parent="1" vertex="1">
          <mxGeometry x="-990" y="-890" width="120" height="40" as="geometry" />
        </mxCell>
        <mxCell id="IwZt7iaxUgFLgzJAYP8h-460" value="Anzahl der offenen Challenges" style="rounded=0;whiteSpace=wrap;html=1;" parent="1" vertex="1">
          <mxGeometry x="-990" y="-840" width="120" height="40" as="geometry" />
        </mxCell>
        <mxCell id="IwZt7iaxUgFLgzJAYP8h-461" value="Anzahl der offenen Jobs" style="rounded=0;whiteSpace=wrap;html=1;" parent="1" vertex="1">
          <mxGeometry x="-990" y="-790" width="120" height="40" as="geometry" />
        </mxCell>
        <mxCell id="IwZt7iaxUgFLgzJAYP8h-464" value="Jobs" style="rounded=0;whiteSpace=wrap;html=1;" parent="1" vertex="1">
          <mxGeometry x="-1450" y="-830" width="120" height="60" as="geometry" />
        </mxCell>
        <mxCell id="IwZt7iaxUgFLgzJAYP8h-473" style="edgeStyle=orthogonalEdgeStyle;rounded=0;orthogonalLoop=1;jettySize=auto;html=1;exitX=1;exitY=0.5;exitDx=0;exitDy=0;entryX=0;entryY=0.5;entryDx=0;entryDy=0;" parent="1" source="IwZt7iaxUgFLgzJAYP8h-469" target="IwZt7iaxUgFLgzJAYP8h-471" edge="1">
          <mxGeometry relative="1" as="geometry">
            <Array as="points">
              <mxPoint x="-1760" y="-700" />
              <mxPoint x="-1760" y="-400" />
              <mxPoint x="-2090" y="-400" />
              <mxPoint x="-2090" y="-370" />
            </Array>
          </mxGeometry>
        </mxCell>
        <mxCell id="IwZt7iaxUgFLgzJAYP8h-469" value="Ãbersicht der Abschlussarbeiten" style="rounded=0;whiteSpace=wrap;html=1;" parent="1" vertex="1">
          <mxGeometry x="-1900" y="-720" width="120" height="40" as="geometry" />
        </mxCell>
        <mxCell id="IwZt7iaxUgFLgzJAYP8h-472" style="edgeStyle=orthogonalEdgeStyle;rounded=0;orthogonalLoop=1;jettySize=auto;html=1;exitX=1;exitY=0.5;exitDx=0;exitDy=0;entryX=0;entryY=0.5;entryDx=0;entryDy=0;" parent="1" source="IwZt7iaxUgFLgzJAYP8h-470" target="IwZt7iaxUgFLgzJAYP8h-469" edge="1">
          <mxGeometry relative="1" as="geometry" />
        </mxCell>
        <mxCell id="IwZt7iaxUgFLgzJAYP8h-498" style="edgeStyle=orthogonalEdgeStyle;rounded=0;orthogonalLoop=1;jettySize=auto;html=1;exitX=0;exitY=0.5;exitDx=0;exitDy=0;entryX=0;entryY=0.5;entryDx=0;entryDy=0;" parent="1" source="IwZt7iaxUgFLgzJAYP8h-470" target="IwZt7iaxUgFLgzJAYP8h-496" edge="1">
          <mxGeometry relative="1" as="geometry" />
        </mxCell>
        <mxCell id="IwZt7iaxUgFLgzJAYP8h-499" style="edgeStyle=orthogonalEdgeStyle;rounded=0;orthogonalLoop=1;jettySize=auto;html=1;exitX=0;exitY=0.5;exitDx=0;exitDy=0;entryX=0;entryY=0.5;entryDx=0;entryDy=0;" parent="1" source="IwZt7iaxUgFLgzJAYP8h-470" target="IwZt7iaxUgFLgzJAYP8h-497" edge="1">
          <mxGeometry relative="1" as="geometry" />
        </mxCell>
        <mxCell id="IwZt7iaxUgFLgzJAYP8h-501" style="edgeStyle=orthogonalEdgeStyle;rounded=0;orthogonalLoop=1;jettySize=auto;html=1;exitX=0;exitY=0.5;exitDx=0;exitDy=0;entryX=0;entryY=0.5;entryDx=0;entryDy=0;" parent="1" source="IwZt7iaxUgFLgzJAYP8h-470" target="IwZt7iaxUgFLgzJAYP8h-500" edge="1">
          <mxGeometry relative="1" as="geometry" />
        </mxCell>
        <mxCell id="IwZt7iaxUgFLgzJAYP8h-470" value="Erstellung einer Abschlussarbeit" style="rounded=0;whiteSpace=wrap;html=1;" parent="1" vertex="1">
          <mxGeometry x="-2080" y="-720" width="120" height="40" as="geometry" />
        </mxCell>
        <mxCell id="IwZt7iaxUgFLgzJAYP8h-479" style="edgeStyle=orthogonalEdgeStyle;rounded=0;orthogonalLoop=1;jettySize=auto;html=1;exitX=1;exitY=0.5;exitDx=0;exitDy=0;entryX=0;entryY=0.5;entryDx=0;entryDy=0;" parent="1" source="IwZt7iaxUgFLgzJAYP8h-471" target="IwZt7iaxUgFLgzJAYP8h-478" edge="1">
          <mxGeometry relative="1" as="geometry" />
        </mxCell>
        <mxCell id="IwZt7iaxUgFLgzJAYP8h-471" value="Ãbersicht Bewerber einer Abschlussarbeit" style="rounded=0;whiteSpace=wrap;html=1;" parent="1" vertex="1">
          <mxGeometry x="-2070" y="-390" width="120" height="40" as="geometry" />
        </mxCell>
        <mxCell id="IwZt7iaxUgFLgzJAYP8h-490" style="edgeStyle=orthogonalEdgeStyle;rounded=0;orthogonalLoop=1;jettySize=auto;html=1;exitX=0;exitY=1;exitDx=0;exitDy=0;entryX=0;entryY=0.5;entryDx=0;entryDy=0;" parent="1" source="IwZt7iaxUgFLgzJAYP8h-478" target="IwZt7iaxUgFLgzJAYP8h-488" edge="1">
          <mxGeometry relative="1" as="geometry" />
        </mxCell>
        <mxCell id="IwZt7iaxUgFLgzJAYP8h-495" style="edgeStyle=orthogonalEdgeStyle;rounded=0;orthogonalLoop=1;jettySize=auto;html=1;exitX=0;exitY=1;exitDx=0;exitDy=0;entryX=0;entryY=0.5;entryDx=0;entryDy=0;" parent="1" source="IwZt7iaxUgFLgzJAYP8h-478" target="IwZt7iaxUgFLgzJAYP8h-489" edge="1">
          <mxGeometry relative="1" as="geometry" />
        </mxCell>
        <mxCell id="IwZt7iaxUgFLgzJAYP8h-478" value="Profil des Bewerbers" style="rounded=0;whiteSpace=wrap;html=1;" parent="1" vertex="1">
          <mxGeometry x="-1890" y="-390" width="120" height="40" as="geometry" />
        </mxCell>
        <mxCell id="IwZt7iaxUgFLgzJAYP8h-480" style="edgeStyle=orthogonalEdgeStyle;rounded=0;orthogonalLoop=1;jettySize=auto;html=1;exitX=1;exitY=0.5;exitDx=0;exitDy=0;entryX=0;entryY=0.5;entryDx=0;entryDy=0;" parent="1" source="IwZt7iaxUgFLgzJAYP8h-481" target="IwZt7iaxUgFLgzJAYP8h-485" edge="1">
          <mxGeometry relative="1" as="geometry" />
        </mxCell>
        <mxCell id="IwZt7iaxUgFLgzJAYP8h-481" value="Ãbersicht der Challenges" style="rounded=0;whiteSpace=wrap;html=1;" parent="1" vertex="1">
          <mxGeometry x="-1540" y="-720" width="120" height="40" as="geometry" />
        </mxCell>
        <mxCell id="IwZt7iaxUgFLgzJAYP8h-482" style="edgeStyle=orthogonalEdgeStyle;rounded=0;orthogonalLoop=1;jettySize=auto;html=1;exitX=1;exitY=0.5;exitDx=0;exitDy=0;entryX=0;entryY=0.5;entryDx=0;entryDy=0;" parent="1" source="IwZt7iaxUgFLgzJAYP8h-483" target="IwZt7iaxUgFLgzJAYP8h-481" edge="1">
          <mxGeometry relative="1" as="geometry" />
        </mxCell>
        <mxCell id="IwZt7iaxUgFLgzJAYP8h-483" value="Erstellung einer Challenge" style="rounded=0;whiteSpace=wrap;html=1;" parent="1" vertex="1">
          <mxGeometry x="-1720" y="-720" width="120" height="40" as="geometry" />
        </mxCell>
        <mxCell id="IwZt7iaxUgFLgzJAYP8h-484" style="edgeStyle=orthogonalEdgeStyle;rounded=0;orthogonalLoop=1;jettySize=auto;html=1;exitX=1;exitY=0.5;exitDx=0;exitDy=0;entryX=0;entryY=0.5;entryDx=0;entryDy=0;" parent="1" source="IwZt7iaxUgFLgzJAYP8h-485" target="IwZt7iaxUgFLgzJAYP8h-486" edge="1">
          <mxGeometry relative="1" as="geometry" />
        </mxCell>
        <mxCell id="IwZt7iaxUgFLgzJAYP8h-485" value="Statisik zu den Challenges" style="rounded=0;whiteSpace=wrap;html=1;" parent="1" vertex="1">
          <mxGeometry x="-1720" y="-640" width="120" height="40" as="geometry" />
        </mxCell>
        <mxCell id="IwZt7iaxUgFLgzJAYP8h-486" value="Profil des Bewerbers" style="rounded=0;whiteSpace=wrap;html=1;" parent="1" vertex="1">
          <mxGeometry x="-1540" y="-640" width="120" height="40" as="geometry" />
        </mxCell>
        <mxCell id="IwZt7iaxUgFLgzJAYP8h-488" value="Lebenslauf" style="rounded=0;whiteSpace=wrap;html=1;" parent="1" vertex="1">
          <mxGeometry x="-1850" y="-340" width="110" height="20" as="geometry" />
        </mxCell>
        <mxCell id="IwZt7iaxUgFLgzJAYP8h-489" value="Erfolgreiche Challenges" style="rounded=0;whiteSpace=wrap;html=1;" parent="1" vertex="1">
          <mxGeometry x="-1850" y="-310" width="110" height="30" as="geometry" />
        </mxCell>
        <mxCell id="IwZt7iaxUgFLgzJAYP8h-496" value="Thema" style="rounded=0;whiteSpace=wrap;html=1;" parent="1" vertex="1">
          <mxGeometry x="-2060" y="-670" width="110" height="20" as="geometry" />
        </mxCell>
        <mxCell id="IwZt7iaxUgFLgzJAYP8h-497" value="Anforderungen" style="rounded=0;whiteSpace=wrap;html=1;" parent="1" vertex="1">
          <mxGeometry x="-2060" y="-640" width="110" height="30" as="geometry" />
        </mxCell>
        <mxCell id="IwZt7iaxUgFLgzJAYP8h-500" value="Zeit &amp;amp; Kontakt" style="rounded=0;whiteSpace=wrap;html=1;" parent="1" vertex="1">
          <mxGeometry x="-2060" y="-600" width="110" height="30" as="geometry" />
        </mxCell>
        <mxCell id="3NRR5k_P6wBEroULs3_i-1" value="&lt;font style=&quot;font-size: 16px&quot; color=&quot;#ffffff&quot;&gt;Webseiten Ãbersicht:&lt;/font&gt;" style="whiteSpace=wrap;html=1;fillColor=#3672FF;strokeColor=#FFFFFF;" parent="1" vertex="1">
          <mxGeometry x="-1880" y="-1180" width="190" height="60" as="geometry" />
        </mxCell>
        <mxCell id="3NRR5k_P6wBEroULs3_i-2" style="edgeStyle=orthogonalEdgeStyle;rounded=0;orthogonalLoop=1;jettySize=auto;html=1;exitX=0.25;exitY=1;exitDx=0;exitDy=0;entryX=0;entryY=0.5;entryDx=0;entryDy=0;" parent="1" source="3NRR5k_P6wBEroULs3_i-6" target="3NRR5k_P6wBEroULs3_i-7" edge="1">
          <mxGeometry relative="1" as="geometry" />
        </mxCell>
        <mxCell id="3NRR5k_P6wBEroULs3_i-3" style="edgeStyle=orthogonalEdgeStyle;rounded=0;orthogonalLoop=1;jettySize=auto;html=1;exitX=0.25;exitY=1;exitDx=0;exitDy=0;entryX=0;entryY=0.5;entryDx=0;entryDy=0;" parent="1" source="3NRR5k_P6wBEroULs3_i-6" target="3NRR5k_P6wBEroULs3_i-8" edge="1">
          <mxGeometry relative="1" as="geometry" />
        </mxCell>
        <mxCell id="3NRR5k_P6wBEroULs3_i-4" style="edgeStyle=orthogonalEdgeStyle;rounded=0;orthogonalLoop=1;jettySize=auto;html=1;exitX=0.25;exitY=1;exitDx=0;exitDy=0;entryX=0;entryY=0.5;entryDx=0;entryDy=0;" parent="1" source="3NRR5k_P6wBEroULs3_i-6" target="3NRR5k_P6wBEroULs3_i-9" edge="1">
          <mxGeometry relative="1" as="geometry" />
        </mxCell>
        <mxCell id="3NRR5k_P6wBEroULs3_i-5" style="edgeStyle=orthogonalEdgeStyle;rounded=0;orthogonalLoop=1;jettySize=auto;html=1;exitX=0.25;exitY=1;exitDx=0;exitDy=0;entryX=0;entryY=0.5;entryDx=0;entryDy=0;" parent="1" source="3NRR5k_P6wBEroULs3_i-6" target="3NRR5k_P6wBEroULs3_i-10" edge="1">
          <mxGeometry relative="1" as="geometry" />
        </mxCell>
        <mxCell id="3NRR5k_P6wBEroULs3_i-6" value="Dashboard" style="rounded=0;whiteSpace=wrap;html=1;" parent="1" vertex="1">
          <mxGeometry x="260" y="-930" width="120" height="60" as="geometry" />
        </mxCell>
        <mxCell id="3NRR5k_P6wBEroULs3_i-7" value="Ãbersicht der Bewerbungen" style="rounded=0;whiteSpace=wrap;html=1;" parent="1" vertex="1">
          <mxGeometry x="320" y="-850" width="120" height="40" as="geometry" />
        </mxCell>
        <mxCell id="3NRR5k_P6wBEroULs3_i-8" value="Anzahl der offenen Abschlussarbeiten" style="rounded=0;whiteSpace=wrap;html=1;" parent="1" vertex="1">
          <mxGeometry x="320" y="-800" width="120" height="40" as="geometry" />
        </mxCell>
        <mxCell id="3NRR5k_P6wBEroULs3_i-9" value="Neue Challenges" style="rounded=0;whiteSpace=wrap;html=1;" parent="1" vertex="1">
          <mxGeometry x="320" y="-750" width="120" height="40" as="geometry" />
        </mxCell>
        <mxCell id="3NRR5k_P6wBEroULs3_i-10" value="Anzahl der offenen Jobs" style="rounded=0;whiteSpace=wrap;html=1;" parent="1" vertex="1">
          <mxGeometry x="320" y="-700" width="120" height="40" as="geometry" />
        </mxCell>
        <mxCell id="JYuaUcvJa31lzN-BkhPr-3" value="User Profile" style="rounded=0;whiteSpace=wrap;html=1;" vertex="1" parent="1">
          <mxGeometry x="-300" y="-860" width="120" height="20" as="geometry" />
        </mxCell>
        <mxCell id="JYuaUcvJa31lzN-BkhPr-4" value="Unternehmen Profil" style="rounded=0;whiteSpace=wrap;html=1;" vertex="1" parent="1">
          <mxGeometry x="-300" y="-830" width="120" height="20" as="geometry" />
        </mxCell>
        <mxCell id="JYuaUcvJa31lzN-BkhPr-17" style="edgeStyle=orthogonalEdgeStyle;rounded=0;orthogonalLoop=1;jettySize=auto;html=1;exitX=0;exitY=0.5;exitDx=0;exitDy=0;entryX=0.5;entryY=0;entryDx=0;entryDy=0;" edge="1" parent="1" source="JYuaUcvJa31lzN-BkhPr-5" target="JYuaUcvJa31lzN-BkhPr-15">
          <mxGeometry relative="1" as="geometry" />
        </mxCell>
        <mxCell id="JYuaUcvJa31lzN-BkhPr-5" value="Abschlussarbeiten" style="rounded=0;whiteSpace=wrap;html=1;" vertex="1" parent="1">
          <mxGeometry x="-750" y="-700" width="120" height="60" as="geometry" />
        </mxCell>
        <mxCell id="JYuaUcvJa31lzN-BkhPr-6" value="Challenges" style="rounded=0;whiteSpace=wrap;html=1;" vertex="1" parent="1">
          <mxGeometry x="-560" y="-700" width="120" height="60" as="geometry" />
        </mxCell>
        <mxCell id="JYuaUcvJa31lzN-BkhPr-7" value="Praktika" style="rounded=0;whiteSpace=wrap;html=1;" vertex="1" parent="1">
          <mxGeometry x="-180" y="-700" width="120" height="60" as="geometry" />
        </mxCell>
        <mxCell id="JYuaUcvJa31lzN-BkhPr-8" value="Jobs" style="rounded=0;whiteSpace=wrap;html=1;" vertex="1" parent="1">
          <mxGeometry x="-370" y="-700" width="120" height="60" as="geometry" />
        </mxCell>
        <mxCell id="JYuaUcvJa31lzN-BkhPr-18" style="edgeStyle=orthogonalEdgeStyle;rounded=0;orthogonalLoop=1;jettySize=auto;html=1;exitX=0.5;exitY=1;exitDx=0;exitDy=0;" edge="1" parent="1" source="JYuaUcvJa31lzN-BkhPr-15" target="JYuaUcvJa31lzN-BkhPr-16">
          <mxGeometry relative="1" as="geometry" />
        </mxCell>
        <mxCell id="JYuaUcvJa31lzN-BkhPr-20" style="edgeStyle=orthogonalEdgeStyle;rounded=0;orthogonalLoop=1;jettySize=auto;html=1;exitX=1;exitY=0.5;exitDx=0;exitDy=0;" edge="1" parent="1" source="JYuaUcvJa31lzN-BkhPr-15" target="JYuaUcvJa31lzN-BkhPr-19">
          <mxGeometry relative="1" as="geometry" />
        </mxCell>
        <mxCell id="JYuaUcvJa31lzN-BkhPr-15" value="Liste aller verfÃ¼gbaren Abschlussarbeiten" style="rounded=0;whiteSpace=wrap;html=1;" vertex="1" parent="1">
          <mxGeometry x="-1030" y="-620" width="130" height="40" as="geometry" />
        </mxCell>
        <mxCell id="JYuaUcvJa31lzN-BkhPr-16" value="Liste der aktiven Bewerbungen" style="rounded=0;whiteSpace=wrap;html=1;" vertex="1" parent="1">
          <mxGeometry x="-1030" y="-430" width="130" height="40" as="geometry" />
        </mxCell>
        <mxCell id="JYuaUcvJa31lzN-BkhPr-21" style="edgeStyle=orthogonalEdgeStyle;rounded=0;orthogonalLoop=1;jettySize=auto;html=1;exitX=0.5;exitY=1;exitDx=0;exitDy=0;entryX=1;entryY=0.5;entryDx=0;entryDy=0;" edge="1" parent="1" source="JYuaUcvJa31lzN-BkhPr-19" target="JYuaUcvJa31lzN-BkhPr-16">
          <mxGeometry relative="1" as="geometry" />
        </mxCell>
        <mxCell id="JYuaUcvJa31lzN-BkhPr-19" value="Bewerbung auf eine Abschlussarbeit&amp;nbsp;" style="rounded=0;whiteSpace=wrap;html=1;" vertex="1" parent="1">
          <mxGeometry x="-920" y="-540" width="130" height="40" as="geometry" />
        </mxCell>
      </root>
    </mxGraphModel>
  </diagram>
</mxfile>
